<svg width="46" height="38" viewBox="0 0 46 38" fill="none" xmlns="http://www.w3.org/2000/svg">
<path d="M39.5131 20.5056C39.5131 18.8488 38.17 17.5056 36.5131 17.5056C34.8563 17.5056 33.5131 18.8488 33.5131 20.5056H39.5131ZM13.0484 27.6883C12.0122 26.3955 10.1241 26.1875 8.83129 27.2237C7.53845 28.2599 7.33042 30.148 8.36663 31.4408L13.0484 27.6883ZM33.5131 20.5056C33.5131 26.8542 28.3675 31.9999 22.0211 31.9999V37.9999C31.6821 37.9999 39.5131 30.167 39.5131 20.5056H33.5131ZM22.0211 31.9999C18.3934 31.9999 15.1595 30.3222 13.0484 27.6883L8.36663 31.4408C11.5673 35.4342 16.4956 37.9999 22.0211 37.9999V31.9999Z" fill="white"/>
<path d="M28.7896 23.0031L36.966 18.6938L43.0001 25.6351" stroke="white" stroke-width="6" stroke-linecap="round" stroke-linejoin="round"/>
<path d="M6.48686 17.4944C6.48686 19.1512 7.83 20.4944 9.48686 20.4944C11.1437 20.4944 12.4869 19.1512 12.4869 17.4944H6.48686ZM32.9516 10.3117C33.9878 11.6045 35.8759 11.8125 37.1687 10.7763C38.4615 9.7401 38.6696 7.85203 37.6334 6.55919L32.9516 10.3117ZM12.4869 17.4944C12.4869 11.1458 17.6325 6.00005 23.9789 6.00005V5.34058e-05C14.3179 5.34058e-05 6.48686 7.83297 6.48686 17.4944H12.4869ZM23.9789 6.00005C27.6066 6.00005 30.8405 7.67777 32.9516 10.3117L37.6334 6.55919C34.4327 2.56582 29.5044 5.34058e-05 23.9789 5.34058e-05V6.00005Z" fill="white"/>
<path d="M17.2104 14.9969L9.03405 19.3062L2.9999 12.3649" stroke="white" stroke-width="6" stroke-linecap="round" stroke-linejoin="round"/>
</svg>
