<svg width="159" height="54" viewBox="0 0 159 54" fill="none" xmlns="http://www.w3.org/2000/svg">
<g clip-path="url(#clip0)">
<path d="M29.2041 32.7857V44.9357C29.2041 46.8643 28.8223 48.3107 27.9634 49.275C27.1044 50.2393 26.0546 50.7214 24.7185 50.7214C23.3824 50.7214 22.3325 50.2393 21.569 49.275C20.7101 48.3107 20.3283 46.8643 20.3283 44.9357V30.375C20.3283 28.0607 20.2329 26.325 20.1375 25.0714C19.9466 23.8179 19.5648 22.7571 18.8968 21.9857C18.2287 21.2143 17.1789 20.7321 15.8427 20.7321C12.9796 20.7321 11.1663 21.7929 10.3073 23.8179C9.44838 25.8429 8.97119 28.8321 8.97119 32.6893V45.0321C8.97119 46.9607 8.58944 48.4071 7.73049 49.3714C6.87155 50.3357 5.82173 50.8179 4.48559 50.8179C3.14946 50.8179 2.09964 50.3357 1.2407 49.3714C0.381753 48.2143 0 46.7679 0 44.8393V18.8036C0 17.0679 0.381753 15.8143 1.14526 14.85C1.90876 13.9821 2.86315 13.5 4.10384 13.5C5.2491 13.5 6.29892 13.8857 7.06243 14.7536C7.82593 15.6214 8.20768 16.7786 8.20768 18.225V19.0929C9.73469 17.1643 11.2617 15.8143 12.9796 14.9464C14.6975 14.0786 16.6062 13.5964 18.7059 13.5964C20.901 13.5964 22.7143 14.0786 24.3367 14.9464C25.8637 15.8143 27.1999 17.2607 28.1543 19.0929C29.5858 17.2607 31.2083 15.8143 32.8307 14.9464C34.4532 14.0786 36.3619 13.5964 38.3661 13.5964C40.7521 13.5964 42.7563 14.0786 44.4742 15.0429C46.1921 16.0071 47.4328 17.4536 48.2917 19.2857C49.0552 20.925 49.437 23.5286 49.437 27.0964V44.9357C49.437 46.8643 49.0552 48.3107 48.1963 49.275C47.3373 50.2393 46.2875 50.7214 44.9514 50.7214C43.6152 50.7214 42.5654 50.2393 41.7065 49.275C40.8475 48.3107 40.4658 46.8643 40.4658 44.9357V29.5071C40.4658 27.5786 40.3703 25.9393 40.2749 24.7821C40.084 23.625 39.7023 22.5643 39.0342 21.7929C38.3661 21.0214 37.3163 20.6357 35.8848 20.6357C34.7395 20.6357 33.6897 21.0214 32.6399 21.6964C31.59 22.3714 30.8265 23.3357 30.2539 24.5893C29.5858 26.1321 29.2041 28.8321 29.2041 32.7857Z" fill="white"/>
<path d="M57.1675 9.16073C55.9268 9.16073 54.8769 8.77502 53.9226 8.00359C53.0636 7.23216 52.5864 6.07502 52.5864 4.72502C52.5864 3.47145 53.0636 2.41073 53.9226 1.54288C54.8769 0.675021 55.9268 0.289307 57.072 0.289307C58.2173 0.289307 59.2671 0.675021 60.2215 1.44645C61.0804 2.21788 61.5576 3.27859 61.5576 4.72502C61.5576 6.17145 61.0804 7.23216 60.2215 8.00359C59.458 8.77502 58.4082 9.16073 57.1675 9.16073Z" fill="#A2C129"/>
<path d="M61.653 18.6107V45.1286C61.653 46.9607 61.2713 48.3107 60.3169 49.275C59.458 50.2393 58.4082 50.7214 57.072 50.7214C55.7359 50.7214 54.6861 50.2393 53.8271 49.275C52.9682 48.3107 52.5864 46.9607 52.5864 45.1286V18.9C52.5864 17.0679 52.9682 15.7179 53.8271 14.85C54.6861 13.8857 55.7359 13.5 57.072 13.5C58.4082 13.5 59.458 13.9821 60.3169 14.85C61.2713 15.7179 61.653 16.9714 61.653 18.6107Z" fill="white"/>
<path d="M92.4797 45.5143V44.6464C91.2391 46.0929 90.0938 47.1536 88.8531 48.0214C87.7078 48.8893 86.3717 49.5643 85.0356 50.0464C83.6994 50.5286 82.1724 50.7214 80.55 50.7214C78.3549 50.7214 76.3507 50.2393 74.5374 49.3714C72.724 48.4071 71.1016 47.1536 69.7655 45.4179C68.4293 43.6821 67.3795 41.6571 66.7114 39.3429C66.0434 37.0286 65.6616 34.5214 65.6616 31.8214C65.6616 26.1321 66.9978 21.6964 69.7655 18.5143C72.5332 15.3321 76.1598 13.6929 80.6454 13.6929C83.2222 13.6929 85.4173 14.175 87.2306 15.0429C89.044 15.9107 90.7619 17.3571 92.4797 19.1893V5.68929C92.4797 3.85714 92.8615 2.41071 93.625 1.44643C94.3885 0.482143 95.4383 0 96.7745 0C98.1106 0 99.1604 0.482143 99.9239 1.35C100.687 2.21786 101.069 3.56786 101.069 5.20714V45.4179C101.069 47.1536 100.687 48.5036 99.8285 49.3714C99.065 50.2393 98.0152 50.7214 96.7745 50.7214C95.5338 50.7214 94.4839 50.2393 93.7204 49.3714C92.8615 48.4071 92.4797 47.1536 92.4797 45.5143ZM74.7282 32.1107C74.7282 34.6179 75.11 36.6429 75.8735 38.3786C76.637 40.1143 77.6868 41.4643 79.023 42.3321C80.3591 43.2 81.7907 43.6821 83.3177 43.6821C84.9401 43.6821 86.3717 43.2964 87.6124 42.4286C88.9485 41.5607 89.9984 40.3071 90.7619 38.5714C91.5254 36.8357 91.9071 34.7143 91.9071 32.1107C91.9071 29.7 91.5254 27.5786 90.7619 25.8429C89.9984 24.1071 88.9485 22.7571 87.6124 21.7929C86.2763 20.8286 84.8447 20.4429 83.2222 20.4429C81.5998 20.4429 80.0728 20.925 78.8321 21.8893C77.496 22.8536 76.5416 24.2036 75.7781 25.9393C75.11 27.675 74.7282 29.7 74.7282 32.1107Z" fill="white"/>
<path d="M150.22 32.0143C149.838 44.55 139.531 54.3857 127.219 54C114.812 53.6143 105.077 43.2 105.459 30.7607C105.841 18.225 116.148 8.38929 128.46 8.77501C140.867 9.06429 150.601 19.4786 150.22 32.0143Z" fill="#A2C129"/>
<path d="M136.19 33.3643H120.92C120.92 35.1964 121.302 36.7393 121.97 38.0893C122.638 39.4393 123.593 40.5 124.738 41.175C125.883 41.85 127.124 42.2357 128.555 42.2357C129.51 42.2357 130.369 42.1393 131.132 41.9464C131.896 41.7536 132.659 41.3679 133.327 40.8857C134.091 40.4036 134.759 39.9214 135.331 39.3429C135.904 38.7643 136.763 38.0893 137.717 37.125C138.099 36.7393 138.672 36.6429 139.435 36.6429C140.199 36.6429 140.867 36.8357 141.344 37.3179C141.821 37.8 142.107 38.3786 142.107 39.15C142.107 39.825 141.821 40.6929 141.249 41.6571C140.676 42.6214 139.817 43.4893 138.767 44.3571C137.622 45.225 136.286 45.9964 134.568 46.575C132.85 47.1536 130.941 47.4429 128.746 47.4429C123.783 47.4429 119.87 45.9964 117.103 43.1036C114.335 40.2107 112.903 36.3536 112.903 31.3393C112.903 29.025 113.285 26.9036 113.953 24.8786C114.621 22.8536 115.671 21.2143 117.007 19.7679C118.343 18.3214 119.966 17.2607 121.875 16.4893C123.783 15.7179 125.883 15.3322 128.269 15.3322C131.323 15.3322 133.9 16.0072 136.095 17.2607C138.29 18.5143 139.912 20.25 140.962 22.275C142.012 24.3 142.585 26.4214 142.585 28.5429C142.585 30.5679 142.012 31.8214 140.867 32.4C139.817 32.9786 138.29 33.3643 136.19 33.3643ZM121.016 28.8322H135.141C134.95 26.1322 134.186 24.2036 132.945 22.8536C131.705 21.5036 130.082 20.8286 127.983 20.8286C126.074 20.8286 124.451 21.5036 123.211 22.8536C122.066 24.2036 121.302 26.2286 121.016 28.8322Z" fill="white"/>
<path d="M155.278 13.8857C155.755 13.8857 156.232 13.9822 156.71 14.175C157.187 14.3679 157.569 14.6572 157.95 15.0429C158.332 15.4286 158.523 15.8143 158.809 16.2965C159 16.7786 159.096 17.2607 159.096 17.7429C159.096 18.4179 158.905 19.0929 158.618 19.6715C158.237 20.25 157.855 20.7322 157.282 21.0215C156.71 21.4072 156.042 21.5036 155.373 21.5036C154.705 21.5036 154.037 21.3107 153.465 21.0215C152.892 20.6357 152.415 20.25 152.129 19.6715C151.747 19.0929 151.651 18.4179 151.651 17.7429C151.651 17.0679 151.842 16.3929 152.129 15.8143C152.51 15.2357 152.892 14.7536 153.465 14.4643C153.942 14.0786 154.61 13.8857 155.278 13.8857ZM155.278 14.6572C154.705 14.6572 154.228 14.7536 153.751 15.0429C153.274 15.3322 152.892 15.7179 152.606 16.2C152.319 16.6822 152.224 17.1643 152.224 17.7429C152.224 18.3215 152.319 18.8036 152.606 19.2857C152.892 19.7679 153.274 20.1536 153.751 20.4429C154.228 20.7322 154.705 20.8286 155.278 20.8286C155.851 20.8286 156.328 20.7322 156.805 20.4429C157.282 20.1536 157.664 19.7679 157.855 19.2857C158.141 18.8036 158.237 18.3215 158.237 17.7429C158.237 17.1643 158.141 16.6822 157.855 16.2C157.569 15.7179 157.187 15.3322 156.71 15.0429C156.328 14.7536 155.851 14.6572 155.278 14.6572ZM154.324 19.7679H153.465V15.7179H155.373C155.66 15.7179 155.946 15.7179 156.137 15.8143C156.328 15.9107 156.519 16.0072 156.614 16.2C156.71 16.3929 156.805 16.5857 156.805 16.7786C156.805 17.0679 156.71 17.2607 156.519 17.55C156.328 17.7429 156.042 17.8393 155.755 17.9357C155.946 18.0322 156.042 18.1286 156.137 18.225C156.232 18.3215 156.423 18.6107 156.519 18.9L156.996 19.6715H155.946L155.66 18.9965C155.469 18.7072 155.373 18.5143 155.278 18.3215C155.183 18.225 155.087 18.1286 154.992 18.0322C154.896 17.9357 154.705 17.9357 154.61 17.9357H154.419V19.7679H154.324ZM154.324 16.2965V17.3572H154.992C155.278 17.3572 155.469 17.3572 155.66 17.2607C155.851 17.1643 155.851 17.0679 155.851 16.7786C155.851 16.5857 155.755 16.4893 155.66 16.3929C155.564 16.2965 155.278 16.2965 154.992 16.2965H154.324Z" fill="#A3C129"/>
</g>
<defs>
<clipPath id="clip0">
<rect width="159" height="54" fill="white"/>
</clipPath>
</defs>
</svg>
