<svg width="32" height="33" viewBox="0 0 32 33" fill="none" xmlns="http://www.w3.org/2000/svg">
<path fill-rule="evenodd" clip-rule="evenodd" d="M8.47642 1.51999C6.53734 -0.419098 3.39346 -0.419097 1.45437 1.51999C-0.484712 3.45907 -0.484714 6.60295 1.45437 8.54204L8.978 16.0657L1.45431 23.5894C-0.484772 25.5284 -0.484771 28.6723 1.45431 30.6114C3.3934 32.5505 6.53728 32.5505 8.47636 30.6114L16 23.0877L23.5237 30.6113C25.4628 32.5504 28.6066 32.5504 30.5457 30.6113C32.4848 28.6722 32.4848 25.5284 30.5457 23.5893L23.0221 16.0657L30.5457 8.54211C32.4847 6.60302 32.4847 3.45914 30.5457 1.52006C28.6066 -0.419027 25.4627 -0.419028 23.5236 1.52006L16 9.04362L8.47642 1.51999Z" fill="#ABABAB"/>
</svg>
