<svg width="380" height="193" viewBox="0 0 380 193" fill="none" xmlns="http://www.w3.org/2000/svg">
<path d="M371.5 118.5L373.815 119.445L371.5 118.5ZM212.246 17.2189C211.262 18.1877 211.25 19.7706 212.219 20.7543L228.007 36.7846C228.976 37.7683 230.559 37.7803 231.543 36.8114C232.527 35.8425 232.539 34.2597 231.57 33.276L217.535 19.0269L231.785 4.99253C232.768 4.02366 232.78 2.44079 231.811 1.4571C230.843 0.4734 229.26 0.461378 228.276 1.43025L212.246 17.2189ZM0.664818 180.477C43.193 186.231 126.011 195.884 203.257 191.809C241.87 189.772 279.248 184.298 309.554 173.103C339.838 161.916 363.438 144.868 373.815 119.445L369.185 117.555C359.562 141.132 337.474 157.459 307.821 168.413C278.19 179.358 241.38 184.791 202.993 186.816C126.239 190.866 43.807 181.269 1.33518 175.523L0.664818 180.477ZM373.815 119.445C382.074 99.2094 380.376 82.3613 371.767 68.6211C363.256 55.0362 348.204 44.8349 330.42 37.2385C294.836 22.039 247.082 16.7512 214.019 16.5001L213.981 21.4999C246.751 21.7488 293.747 27.011 328.455 41.8365C345.817 49.2526 359.796 58.9326 367.53 71.2758C375.166 83.4637 376.926 98.5906 369.185 117.555L373.815 119.445Z" fill="white"/>
</svg>
