<svg width="341" height="47" viewBox="0 0 341 47" fill="none" xmlns="http://www.w3.org/2000/svg">
<path d="M339.441 36.3162C340.72 35.7967 341.336 34.3385 340.816 33.0592L332.349 12.2131C331.83 10.9339 330.372 10.3181 329.092 10.8376C327.813 11.3572 327.197 12.8154 327.717 14.0946L335.243 32.6245L316.713 40.1507C315.434 40.6703 314.818 42.1285 315.338 43.4077C315.857 44.6869 317.315 45.3027 318.595 44.7832L339.441 36.3162ZM3.30491 46.1324C36.3685 25.8995 88.6965 10.2258 148.479 6.24448C208.223 2.26565 275.197 9.98046 337.527 36.3031L339.473 31.697C276.303 5.01955 208.527 -2.76563 148.146 1.25553C87.8035 5.27421 34.6315 21.1005 0.695088 41.8676L3.30491 46.1324Z" fill="white"/>
</svg>
